<svg width="25" height="25" fill="none" xmlns="http://www.w3.org/2000/svg"><path fill-rule="evenodd" clip-rule="evenodd" d="M19.873 0H5.127A5.133 5.133 0 000 5.127v14.746C0 22.7 2.3 25 5.127 25h14.746C22.7 25 25 22.7 25 19.873V5.127C25 2.3 22.7 0 19.873 0zM7.925 19.504a1.21 1.21 0 01-1.06.657 1.15 1.15 0 01-.61-.176c-.583-.362-.783-1.168-.446-1.795l.24-.448h2.822l-.946 1.762zM5.22 16.935a1.192 1.192 0 01-1.186-1.196c0-.66.532-1.196 1.186-1.196h2.33l3.2-5.59-.867-1.514a1.203 1.203 0 01.434-1.634 1.182 1.182 0 011.62.438l.183.319.182-.319a1.182 1.182 0 012.173.288c.082.309.04.631-.119.908l-4.067 7.104h2.566l1.369 2.393H5.219zm14.48-.026h-1.03l.835 1.405c.35.588.141 1.342-.464 1.682a1.291 1.291 0 01-.963.123 1.256 1.256 0 01-.77-.574l-4.404-7.405 1.464-2.463 2.837 4.77H19.7c.7 0 1.268.552 1.268 1.231s-.569 1.231-1.268 1.231z" fill="#1C1C1D"/></svg>