<svg width="52" height="56" fill="none" xmlns="http://www.w3.org/2000/svg"><g filter="url(#filter0_d_2_52)"><path d="M16.02 50h-.032l-.034.003-8.197.769c-3.862.362-7.18-2.718-7.105-6.597L1 26.01v-.02L.696 10.183C.594 4.865 4.876.5 10.194.5H42a9.5 9.5 0 019.5 9.5v31.575c0 5.401-4.498 9.716-9.895 9.491L16.02 50z" fill="#1BDBC4" stroke="#1C1C1D"/><path d="M6.727 30.946a.793.793 0 01-.189-.295c-.031-.113-.115-.207-.251-.279a7.162 7.162 0 00-.095-.527 12.85 12.85 0 00-.11-.62 14.873 14.873 0 01-.078-.636c-.01-.217 0-.413.031-.589a1.13 1.13 0 01.095-.264c.052-.082.1-.16.141-.232a.858.858 0 00.11-.248.403.403 0 00.016-.248c.063-.01.1-.042.11-.093.02-.062.073-.083.157-.062.073-.228.152-.44.236-.636a8.85 8.85 0 01.267-.574l.283-.558c.104-.196.199-.413.282-.65a1.652 1.652 0 01-.392-.528 4.167 4.167 0 01-.173-.59 5.723 5.723 0 01-.095-.588 3.263 3.263 0 00-.125-.62c.125-.187.277-.336.455-.45.178-.124.372-.222.582-.295.22-.082.456-.144.707-.186.251-.051.518-.108.801-.17.503-.155.954-.274 1.352-.357.398-.093.785-.165 1.162-.217.378-.062.77-.114 1.179-.155.409-.052.88-.124 1.414-.217.01.031.026.046.047.046h.11c.032.073.09.11.173.11a.172.172 0 00-.015-.078v-.078a.27.27 0 01.078.015.5.5 0 01.094.031c.032.01.058.01.079 0 .02-.02.026-.056.016-.108.125.217.288.398.487.543.199.134.419.253.66.356a.66.66 0 010 .202.502.502 0 01-.016.124.4.4 0 00-.016.124c0 .041.01.103.032.186a2.108 2.108 0 01-.582.651c-.21.155-.434.274-.675.357a4.409 4.409 0 01-.77.186c-.262.041-.535.088-.817.14-.273.04-.55.103-.833.185a3.49 3.49 0 00-.833.372.482.482 0 00-.236-.03.759.759 0 00-.204.03 3.593 3.593 0 01-.252.062.8.8 0 01-.314 0 .747.747 0 01-.298.155 14.44 14.44 0 01-.33.093.662.662 0 01.063.341c0 .114.015.212.047.295.44.041.927.041 1.461 0a27.951 27.951 0 011.571-.108c.01.051.006.087-.015.108-.021.02-.032.057-.032.109.095.062.184.14.267.232l.252.28c.094.082.188.154.283.216a.575.575 0 00.33.062c.052.104.089.212.11.326a.616.616 0 01-.048.356c-.21.135-.413.274-.612.42a6.26 6.26 0 01-.629.371c-.21.114-.44.207-.691.28a2.608 2.608 0 01-.817.092h-.142c-.031 0-.073-.02-.126-.062a.855.855 0 01-.424.062.791.791 0 00-.424.047 1.562 1.562 0 00-.519-.078c-.188 0-.356-.026-.502-.077a9.871 9.871 0 00-.535.852c-.167.29-.314.6-.44.93.43.063.786.088 1.069.078.283-.01.55-.03.801-.062l.77-.093c.273-.03.603-.041.99-.03.262-.125.56-.207.896-.249.346-.052.665-.124.958-.217a.527.527 0 01.267.186c.074.083.142.17.205.264.073.082.146.155.22.217.073.062.167.082.283.062a.32.32 0 01.094.186c.02.072.037.14.047.201a.544.544 0 00.079.155c.031.031.089.042.172.031-.199.404-.424.714-.675.93a2.716 2.716 0 01-.833.512c-.304.114-.65.202-1.037.264a34.58 34.58 0 00-1.273.201.72.72 0 01-.298 0 .599.599 0 00-.236-.046c-.294.052-.644.103-1.053.155a7.834 7.834 0 01-1.21.062 5.485 5.485 0 01-1.178-.155 2.06 2.06 0 01-.943-.496zm19.308-.776a2.45 2.45 0 01-.283.543 2.304 2.304 0 01-.958.822 1.651 1.651 0 01-.629.155.753.753 0 01-.283-.109 1.67 1.67 0 00-.141-.093.399.399 0 00-.094-.046.246.246 0 00-.063-.047l-.189-.077.063-.202c.021-.082.016-.145-.016-.186a1.002 1.002 0 00-.188-.201l-.094-.093a.61.61 0 01-.079-.093l-.267-.295.424-.108c.262-.073.435-.166.519-.28.094-.113.13-.305.11-.573a1.352 1.352 0 00-.535-.016 8.58 8.58 0 00-.424.109 9.618 9.618 0 01-.581.14c-.189.03-.398.046-.629.046h-.236l-.235-.031-.157-.031c-.021-.114-.042-.176-.063-.186l-.063-.062a1.892 1.892 0 01-.173-.202.462.462 0 01-.031-.34.737.737 0 01-.095-.28c-.062.124-.11.253-.141.388l-.063.155-.157.03c-.021.011-.037.037-.047.078a.25.25 0 00-.016.078l-.078.263-.063.062a.247.247 0 00-.063.047 2.794 2.794 0 01-.079.279c-.031.093-.063.18-.094.264a6.14 6.14 0 00-.141.403 1.12 1.12 0 00-.032.372l-.063.17a.807.807 0 01-.172.155l-.19.093a.367.367 0 01-.093.062.597.597 0 00-.079.031l-.047.17-.189.032c-.115.02-.199.036-.251.046a.671.671 0 01-.157.016l-.157-.016a39.153 39.153 0 01-.267-.217 1.239 1.239 0 00-.22-.17c-.095-.124-.147-.217-.158-.28a5.345 5.345 0 00-.031-.17.505.505 0 01-.031-.155.197.197 0 00-.048-.093l-.204-.186.173-.14.016-.263a26.4 26.4 0 01.66-1.52l.738-1.488c.084-.165.163-.33.236-.496l.251-.496a.339.339 0 01.016-.248c.115-.176.21-.33.283-.465l.22-.434c.084-.176.167-.347.251-.512.095-.165.21-.336.346-.512l.251-.108.11-.031a.315.315 0 01.142-.031l.235.03c.294-.133.55-.32.77-.557.22-.248.446-.543.676-.884l.157-.217.204.124c.053.031.126.062.22.093.095.02.194.047.3.078.188.04.366.087.533.14.168.05.304.128.409.232.063.165.1.29.11.372.01.082.026.165.047.248.031.175.058.351.079.527.031.176.052.372.063.59.052.175.094.35.125.526.042.166.079.336.11.512.052.248.105.49.157.729a4.3 4.3 0 00.204.65c.084 0 .137.006.158.016a.899.899 0 01.157-.046c.063-.01.13-.021.204-.031l.173-.016.063.155c.01.052.063.104.157.155.136.01.236.042.298.093.063.042.12.088.173.14a.496.496 0 00.126.093l.236.093-.126.232a2.132 2.132 0 01-.456.543 2.747 2.747 0 01-.644.419c.01.062.016.124.016.186.01.051.026.108.047.17.031.176.058.357.079.543a2.62 2.62 0 010 .573l-.032.063zm-4.541-2.682c.314-.02.597-.041.848-.062.262-.03.55-.077.865-.14a60.596 60.596 0 00-.503-1.968l-.095.155c-.209.217-.413.46-.612.729a9.95 9.95 0 00-.487.76l-.189.278a4.04 4.04 0 00-.173.28c.063-.011.12-.016.173-.016a.89.89 0 00.173-.016zm7.303-2.992a1.4 1.4 0 01.346-.558c.168-.155.346-.284.534-.388.2-.113.404-.206.613-.279a9.64 9.64 0 01.597-.186c.42-.175.864-.34 1.336-.496.482-.165.969-.31 1.461-.434a8.52 8.52 0 011.54-.233 4.635 4.635 0 011.65.186c.031.104.078.202.141.295l.189.28c.073.092.136.185.188.278.053.083.084.17.095.264.105.093.188.196.251.31.063.103.074.243.032.418-.105.083-.21.16-.315.233a2.237 2.237 0 01-.314.17 3.794 3.794 0 00-1.178-.092c-.399.03-.755.056-1.069.077a.473.473 0 00-.346-.14c-.125 0-.262.021-.408.063a23.08 23.08 0 01-.425.124.86.86 0 01-.392.03.907.907 0 01-.393.171c-.147.02-.31.042-.487.062-.01.052 0 .088.031.109.032.01.037.041.016.093a.522.522 0 00.236.155l.314.093c.115.03.215.072.298.124a.337.337 0 01.173.217c.157 0 .294.036.409.108a.981.981 0 01.44.605.906.906 0 01.063.31c.031.083.068.119.11.109.041-.01.089.01.141.062.032.134.11.274.236.418.125.135.225.285.298.45.021.258.037.49.047.697.01.197-.026.398-.11.605a3.315 3.315 0 01-.66 1.023 5.06 5.06 0 01-.942.807 6.701 6.701 0 01-1.116.589c-.398.165-.786.305-1.163.418a.257.257 0 00-.125 0c-.042.01-.053-.015-.032-.077a.607.607 0 01-.283.14 1.03 1.03 0 01-.314.015c-.115 0-.236-.005-.362-.016a1.165 1.165 0 00-.33.016 3.872 3.872 0 01-.204-.217.694.694 0 01-.125-.248c-.053 0-.079-.026-.079-.078.01-.051-.005-.077-.047-.077.063-.104.089-.16.078-.17 0-.021-.015-.037-.047-.047l-.063-.031c-.02-.021-.026-.047-.015-.078a.493.493 0 00.047-.279l-.032-.341a1.114 1.114 0 01.016-.326c.032-.103.11-.186.236-.248.356.042.691.031 1.006-.03.324-.073.628-.171.91-.295a8.22 8.22 0 00.802-.403 10.9 10.9 0 01.77-.388.706.706 0 01.126-.232c.063-.062.126-.12.188-.171a1.34 1.34 0 00.173-.17.535.535 0 00.11-.233c.01-.072-.01-.114-.063-.124-.041-.02-.062-.062-.062-.124l-.173-.047a3.073 3.073 0 00-.676-.279 4.307 4.307 0 01-.644-.263.424.424 0 01-.33.046 3.3 3.3 0 00-.377-.093c-.356-.02-.702-.057-1.037-.108a3.797 3.797 0 01-.943-.28.605.605 0 00-.079-.139c-.031-.041-.089-.052-.172-.031a4.604 4.604 0 00-.19-.232 2.285 2.285 0 01-.172-.264c.021-.124.037-.227.047-.31a.332.332 0 00-.094-.264c.042-.134.073-.243.094-.325a.838.838 0 000-.326zm14.029 2.915a.84.84 0 00-.189.232 6.6 6.6 0 00-.157.264c-.052.114-.11.222-.173.326a1.2 1.2 0 01-.235.279 2.23 2.23 0 01-.158.372c-.052.082-.136.18-.251.294-.105.414-.35.863-.738 1.35a.736.736 0 01-.095.278 3.122 3.122 0 01-.141.248 1.013 1.013 0 00-.063.109.788.788 0 00-.047.077l-.032.155a1.22 1.22 0 01-.172.217l-.173.17a.91.91 0 01-.11.125l-.236.093c-.765-.103-1.23-.506-1.398-1.21l.015-.154a.87.87 0 00.047-.155l.063-.186c.042-.145.09-.29.142-.435.063-.144.151-.273.267-.387a2.62 2.62 0 01.141-.341c.073-.166.2-.409.377-.729.147-.248.262-.444.346-.59.084-.144.152-.258.204-.34a2.218 2.218 0 00-.377-.45 11.708 11.708 0 01-.361-.744 6.63 6.63 0 01-.22-.636 2.459 2.459 0 00-.047-.34l-.063-.295a4.07 4.07 0 01-.079-.341 1.959 1.959 0 01-.031-.357.49.49 0 01-.094-.217l.03-.155a.482.482 0 00.017-.28 4.65 4.65 0 00-.079-.371 7.29 7.29 0 00-.078-.341 1.475 1.475 0 01-.016-.372.915.915 0 01.094-.341.809.809 0 01.299-.295l.267-.015c.094.051.183.103.267.155.094.04.183.087.267.139.115.052.225.103.33.155.105.052.215.119.33.202l.11.217.204.17v.17c.01.042.016.099.016.171 0 .135.02.217.063.248l.063.186c0 .145.015.285.047.419.031.124.063.243.094.357.032.113.063.232.094.356.032.124.037.259.016.403a.6.6 0 00.157-.108.244.244 0 01.063-.047.246.246 0 00.063-.046l.927-1.24-.031-.156.33-.31.235-.232c.084-.073.152-.15.205-.233l.172-.124a2.137 2.137 0 011.43-.961l.22-.031.063.201a.692.692 0 00.252.31c.136.094.277.181.424.264l.141.093a.585.585 0 01.079.233.567.567 0 01-.016.14l.063.154c-.084.248-.189.43-.314.543-.115.114-.23.217-.346.31l-.267.233a.625.625 0 00-.173.248l-.11.124c-.22.124-.361.289-.424.496l-.047.186h-.189c-.01 0-.037.02-.079.062a1.293 1.293 0 00-.157.263c-.073.104-.125.17-.157.202l-.078.078a.601.601 0 01-.047.124c-.01.03-.027.072-.048.123-.136.135-.22.238-.251.31l-.11.218-.126.248a.776.776 0 01-.173.232l-.078.233z" fill="#fff"/></g><defs><filter id="filter0_d_2_52" x="0" y="0" width="52" height="56" filterUnits="userSpaceOnUse" color-interpolation-filters="sRGB"><feFlood flood-opacity="0" result="BackgroundImageFix"/><feColorMatrix in="SourceAlpha" values="0 0 0 0 0 0 0 0 0 0 0 0 0 0 0 0 0 0 127 0" result="hardAlpha"/><feOffset dy="4"/><feColorMatrix values="0 0 0 0 0.125 0 0 0 0 0.125 0 0 0 0 0.125 0 0 0 1 0"/><feBlend in2="BackgroundImageFix" result="effect1_dropShadow_2_52"/><feBlend in="SourceGraphic" in2="effect1_dropShadow_2_52" result="shape"/></filter></defs></svg>